<svg width="885.55805" height="557.51874" xmlns="http://www.w3.org/2000/svg" data-name="Layer 1">
 <title>heavy_box</title>

 <g>
  <title>Layer 1</title>
  <path id="svg_1" fill="#e6e6e6" d="m681.59126,421.11103c36.42578,-91.06739 25.40683,-192.75416 -21.57259,-270.85166l-491.77326,68.09166l471.2759,-98.21687c-198.62291,-247.68466 -585.21339,-83.39849 -547.948,229.321l590.01795,71.65587z"/>
  <rect id="svg_2" fill="#6b7280" height="195.09542" width="626.52594" y="320.44454" x="76.75322"/>
  <rect id="svg_16" fill="#fff" height="65.63579" width="138.36733" y="343.97895" x="527.41215"/>
  <rect id="svg_17" fill="#e6e6e6" height="7.8701" width="86.0361" y="357.72699" x="553.57776"/>
  <rect id="svg_18" fill="#e6e6e6" height="7.8701" width="86.0361" y="372.8618" x="553.57776"/>
  <rect id="svg_19" fill="#e6e6e6" height="7.8701" width="86.0361" y="387.9966" x="553.57776"/>
  <polygon id="svg_20" fill="#fff" points="406.916 359.57 402.415 351.775 397.915 343.979 393.414 351.775 388.913 359.57 393.749 359.57 393.749 382.144 402.08 382.144 402.08 359.57 406.916 359.57"/>
  <circle id="svg_21" fill="#3f3d56" r="37.06013" cy="483.13309" cx="711.88818"/>
  <circle id="svg_22" fill="#e6e6e6" r="16.42438" cy="483.13309" cx="718.62639"/>
  <polygon id="svg_23" fill="#3f3d56" points="688.515 509.033 769.374 542.724 766.847 550.726 720.311 545.461 641.558 510.507 685.356 515.561 688.515 509.033"/>
  <path id="svg_24" fill="#3f3d56" d="m759.98963,541.20611l100.56476,-329.88689l24.49016,-43.49091l0.086,-0.4197c0.079,-0.38371 1.877,-9.47416 -2.54574,-16.05732a14.41879,14.41879 0 0 0 -9.7384,-6.13447c-13.51631,-2.53423 -43.75393,-3.78284 -45.0342,-3.83486l-0.24142,-0.00987l-0.23935,0.03269c-0.82624,0.11269 -20.15088,2.93748 -24.51936,19.8122l-21.0244,38.2637l-0.08267,0.27226l-95.17721,312.90543l5.2379,1.59325l95.0945,-312.63319l21.09473,-38.39264l0.08555,-0.35286c3.089,-12.6985 17.85682,-15.66929 19.821,-16.00921c3.089,0.13181 31.50885,1.39646 43.9756,3.73411a9.02851,9.02851 0 0 1 6.19122,3.7888c2.72588,4.03618 2.04358,9.97879 1.8034,11.541l-24.34,43.22463l-0.08719,0.28521l-100.65196,330.1721l5.23708,1.59654z"/>
  <rect id="svg_25" transform="rotate(-79.7621 233.463 1119.55)" fill="#3f3d56" height="73.80538" width="5.47477" y="1494.2551" x="1198.46877"/>
  <rect id="svg_26" transform="rotate(-78.4647 157.924 1129.13)" fill="#3f3d56" height="73.59863" width="5.47474" y="1549.53314" x="1109.04496"/>
  <rect id="svg_27" transform="rotate(-74.0321 -3.20877 1113.02)" fill="#3f3d56" height="73.22959" width="5.47463" y="1616.40717" x="922.69978"/>
  <polygon id="svg_28" fill="#3f3d56" points="784.589 511.372 786.585 506.273 718.249 479.515 714.893 443.181 778.675 467.004 799.338 496.902 803.843 493.79 782.201 462.476 708.64 435 713.108 483.382 784.589 511.372"/>
  <circle id="svg_29" fill="#3f3d56" r="37.06013" cy="518.50867" cx="808.32876"/>
  <circle id="svg_30" fill="#e6e6e6" r="16.42438" cy="520.19322" cx="818.01493"/>
 </g>
</svg>